#!OML:ASF H:\Terrain\Patient Classification 1\Terrain2\Thursday\justin.ASF
:FULLY-SPECIFIED
:DEGREES
1495
root 19.0137 21.2074 1.15453 715.274 -187.693 -363.051
lowerback 4.85523 -0.409735 -3.20277
upperback 3.22173 -0.501876 1.21825
thorax 0.637027 -0.24012 3.07264
lowerneck -12.757 -1.00632 -6.38093
upperneck 40.022 6.82779 -1.9712
head 16.5736 3.27263 1.94589
rclavicle -2.27111e-014 -1.74931e-014
rhumerus -37.091 -11.9201 -73.9414
rradius 33.2286
rwrist -6.75032
rhand -21.0353 7.93606
rfingers 7.12502
rthumb 5.34028 -21.9767
lclavicle -2.27111e-014 -1.74931e-014
lhumerus -35.966 13.6399 81.7064
lradius 22.8451
lwrist -1.28729
lhand -21.2666 19.4868
lfingers 7.12502
lthumb 5.11692 49.405
rfemur -12.3095 -8.94662 8.2891
rtibia 96.8983
rfoot -13.2338 -0.251375
rtoes 3.47168
lfemur 7.55975 9.02829 -27.1112
ltibia 10.1503
lfoot -2.6863 -9.15754
ltoes 3.37742
1496
root 19.0387 21.2503 1.1124 715.86 -187.566 -361.626
lowerback 5.27571 -0.605556 -2.24386
upperback 2.99859 -0.730093 1.75076
thorax 0.182365 -0.334115 3.09743
lowerneck -12.7226 -1.00647 -6.34438
upperneck 40.112 6.85051 -1.98905
head 16.6159 3.28508 1.93824
rclavicle 1.46604e-014 -3.57812e-014
rhumerus -37.1063 -11.6523 -74.1384
rradius 33.933
rwrist -8.11146
rhand -21.8071 7.53012
rfingers 7.12502
rthumb 4.59503 -22.4
lclavicle 1.46604e-014 -3.57812e-014
lhumerus -35.7828 12.2239 82.4169
lradius 23.9787
lwrist 0.586357
lhand -22.9091 19.4737
lfingers 7.12502
lthumb 3.53092 49.4242
rfemur -14.8418 -9.31844 10.9067
rtibia 97.7901
rfoot -12.8421 -1.29265
rtoes 5.99675
lfemur 7.36247 8.83003 -25.4727
ltibia 9.89246
lfoot -2.1441 -9.29603
ltoes 2.53487
1497
root 19.0524 21.2814 1.04221 716.042 -187.172 -361.478
lowerback 5.52288 -0.817413 -2.4161
upperback 2.96702 -1.01786 1.90663
thorax 0.0397872 -0.476435 3.37407
lowerneck -12.8532 -1.00522 -6.21197
upperneck 40.1767 6.88945 -2.13744
head 16.6968 3.28979 1.86196
rclavicle 1.38652e-014 -8.74653e-015
rhumerus -37.045 -11.5242 -74.2228
rradius 34.5044
rwrist -9.16283
rhand -22.0022 7.82726
rfingers 7.12502
rthumb 4.40665 -22.1069
lclavicle 1.38652e-014 -8.74653e-015
lhumerus -35.5129 11.6736 82.5084
lradius 24.9544
lwrist 0.258999
lhand -21.7296 20.2091
lfingers 7.12502
lthumb 4.6699 50.1377
rfemur -16.6895 -9.98145 11.5854
rtibia 98.3727
rfoot -13.2319 -1.9983
rtoes 4.95974
lfemur 7.82784 8.51579 -25.2463
ltibia 9.1619
lfoot -1.45915 -9.68281
ltoes -0.277274
1498
root 19.0557 21.3005 0.949507 715.948 -186.592 -362.102
lowerback 5.65156 -1.06642 -3.20694
upperback 3.03679 -1.3878 1.81186
thorax 0.0887055 -0.670942 3.74338
lowerneck -12.9761 -0.984797 -6.17784
upperneck 40.2256 6.9159 -2.14861
head 16.7551 3.29107 1.85895
rclavicle 1.71949e-014 1.90833e-014
rhumerus -37.0662 -11.3044 -74.3603
rradius 35.1554
rwrist -10.3497
rhand -21.86 8.40153
rfingers 7.12502
rthumb 4.54392 -21.5297
lclavicle 1.71949e-014 1.90833e-014
lhumerus -35.2008 11.0345 82.6144
lradius 25.9634
lwrist 0.178145
lhand -20.2611 20.9954
lfingers 7.12502
lthumb 6.08774 50.8879
rfemur -17.942 -10.8207 11.0144
rtibia 98.6876
rfoot -14.4512 -2.48388
rtoes 0.984604
lfemur 8.14174 8.10245 -25.8957
ltibia 9.24022
lfoot -1.31907 -9.92793
ltoes -0.0504905
1499
root 19.0531 21.3152 0.849265 715.728 -185.945 -362.884
lowerback 5.81126 -1.35154 -4.10712
upperback 3.13535 -1.81031 1.68589
thorax 0.168277 -0.893413 4.14523
lowerneck -12.9432 -0.92951 -6.29693
upperneck 40.1555 6.93548 -2.0279
head 16.6955 3.2887 1.92858
rclavicle 7.05686e-015 -1.35174e-014
rhumerus -37.0576 -11.045 -74.4417
rradius 35.6613
rwrist -11.3241
rhand -21.7582 8.98709
rfingers 7.12502
rthumb 4.64228 -20.942
lclavicle 7.05686e-015 -1.35174e-014
lhumerus -35.0292 9.77086 83.1642
lradius 27.2436
lwrist 2.21353
lhand -21.3182 21.1503
lfingers 7.12502
lthumb 5.06706 51.0697
rfemur -18.8923 -11.4864 10.0859
rtibia 98.7882
rfoot -15.1848 -2.13879
rtoes 3.30763
lfemur 8.70018 7.65919 -26.7636
ltibia 9.0556
lfoot -1.0313 -10.0983
ltoes 0.0385942
